<svg version="1.1" viewBox="0.0 0.0 432.31496062992125 100.0" fill="none" stroke="none" stroke-linecap="square" stroke-miterlimit="10" xmlns:xlink="http://www.w3.org/1999/xlink" xmlns="http://www.w3.org/2000/svg"><clipPath id="p.0"><path d="m0 0l432.31497 0l0 100.0l-432.31497 0l0 -100.0z" clip-rule="nonzero"/></clipPath><g clip-path="url(#p.0)"><path fill="#000000" fill-opacity="0.0" d="m0 0l432.31497 0l0 100.0l-432.31497 0z" fill-rule="evenodd"/><path fill="#ffd700" d="m23.590816 10.3149605l398.36194 0c9.1552734E-4 0 0.0017700195 3.6144257E-4 0.0024108887 0.0010051727c6.4086914E-4 6.427765E-4 0.0010070801 0.0015153885 0.0010070801 0.0024251938l-0.0034179688 66.13804c0 7.3059616 -5.9226685 13.228607 -13.228607 13.228607l-398.36194 0l0 0c-0.0018939972 0 -0.0034294128 -0.0015335083 -0.0034294128 -0.0034255981l0.0034294128 -66.13804l0 0c0 -7.3059597 5.9226503 -13.228611 13.228612 -13.228611z" fill-rule="evenodd"/><path stroke="#ffd700" stroke-width="1.0" stroke-linejoin="round" stroke-linecap="butt" d="m23.590816 10.3149605l398.36194 0c9.1552734E-4 0 0.0017700195 3.6144257E-4 0.0024108887 0.0010051727c6.4086914E-4 6.427765E-4 0.0010070801 0.0015153885 0.0010070801 0.0024251938l-0.0034179688 66.13804c0 7.3059616 -5.9226685 13.228607 -13.228607 13.228607l-398.36194 0l0 0c-0.0018939972 0 -0.0034294128 -0.0015335083 -0.0034294128 -0.0034255981l0.0034294128 -66.13804l0 0c0 -7.3059597 5.9226503 -13.228611 13.228612 -13.228611z" fill-rule="evenodd"/><path fill="#f7302d" d="m26.439857 78.799995l12.0 -57.265625l19.5625 0q6.375 0 8.90625 0.390625q4.21875 0.578125 7.140625 2.34375q2.9375 1.75 4.453125 4.6875q1.53125 2.921875 1.53125 6.484373q0 4.765625 -2.65625 8.265625q-2.65625 3.484375 -8.203125 5.28125q4.421875 1.21875 6.890625 4.328125q2.484375 3.09375 2.484375 7.0q0 5.156254 -2.9375 9.796879q-2.921875 4.625 -8.078125 6.65625q-5.15625 2.03125 -14.09375 2.03125l-27.0 0zm18.90625 -34.14063l8.984375 0q6.0625 0 8.71875 -0.859375q2.65625 -0.859375 3.984375 -2.8125q1.328125 -1.953125 1.328125 -4.1875q0 -2.1875 -1.25 -3.59375q-1.25 -1.4062481 -3.5625 -1.8749981q-1.28125 -0.234375 -6.203125 -0.234375l-9.140625 0l-2.859375 13.562498zm-5.1875 24.921879l11.359375 0q7.15625 0 9.59375 -0.921875q2.4375 -0.921875 3.90625 -3.03125q1.46875 -2.1093788 1.46875 -4.453129q0 -2.84375 -2.109375 -4.703125q-2.109375 -1.859375 -7.03125 -1.859375l-14.0625 0l-3.125 14.968754z" fill-rule="nonzero"/><path fill="#000000" d="m107.51017 67.518745l5.5 0.5625q-1.1875 4.09375 -5.453125 7.78125q-4.265625 3.6875 -10.171875 3.6875q-3.6875 0 -6.765625 -1.703125q-3.078125 -1.703125 -4.6875 -4.953125q-1.609375 -3.25 -1.609375 -7.40625q0 -5.437504 2.515625 -10.546879q2.515625 -5.109375 6.515625 -7.59375q4.0 -2.484375 8.65625 -2.484375q5.9375 0 9.484375 3.6875q3.546875 3.6875 3.546875 10.0625q0 2.4375 -0.4375 5.0l-24.4375 0q-0.125 0.9687538 -0.125 1.7500038q0 4.65625 2.140625 7.109375q2.140625 2.453125 5.234375 2.453125q2.90625 0 5.71875 -1.90625q2.8125 -1.90625 4.375 -5.5zm-16.4375 -8.218754l18.625 0q0.03125 -0.875 0.03125 -1.25q0 -4.25 -2.125 -6.515625q-2.125 -2.265625 -5.46875 -2.265625q-3.625 0 -6.609375 2.5q-2.984375 2.5 -4.453125 7.53125zm52.031258 8.218754l5.5 0.5625q-1.1875 4.09375 -5.453125 7.78125q-4.265625 3.6875 -10.171875 3.6875q-3.6875 0 -6.7656326 -1.703125q-3.078125 -1.703125 -4.6875 -4.953125q-1.609375 -3.25 -1.609375 -7.40625q0 -5.437504 2.515625 -10.546879q2.515625 -5.109375 6.5156326 -7.59375q4.0 -2.484375 8.65625 -2.484375q5.9375 0 9.484375 3.6875q3.546875 3.6875 3.546875 10.0625q0 2.4375 -0.4375 5.0l-24.437508 0q-0.125 0.9687538 -0.125 1.7500038q0 4.65625 2.140625 7.109375q2.1406326 2.453125 5.2343826 2.453125q2.90625 0 5.71875 -1.90625q2.8125 -1.90625 4.375 -5.5zm-16.437508 -8.218754l18.625008 0q0.03125 -0.875 0.03125 -1.25q0 -4.25 -2.125 -6.515625q-2.125 -2.265625 -5.46875 -2.265625q-3.625 0 -6.609375 2.5q-2.984375 2.5 -4.4531326 7.53125z" fill-rule="nonzero"/><path fill="#f7302d" d="m196.9633 58.17499l11.875 1.796875q-3.46875 9.640629 -10.421875 14.750004q-6.953125 5.09375 -16.296875 5.09375q-10.5 0 -16.421875 -6.328125q-5.921875 -6.328125 -5.921875 -18.359379q0 -9.765625 3.96875 -17.875q3.96875 -8.109373 11.0 -12.406248q7.03125 -4.296875 15.3125 -4.296875q9.296875 0 15.03125 4.984375q5.75 4.984375 6.765625 13.578123l-11.296875 1.09375q-0.9375 -5.0 -3.609375 -7.25q-2.671875 -2.249998 -7.125 -2.249998q-4.890625 0 -9.125 2.968748q-4.234375 2.96875 -6.78125 9.28125q-2.53125 6.3125 -2.53125 12.59375q0 6.875 3.296875 10.625004q3.296875 3.75 8.21875 3.75q4.578125 0 8.375 -2.96875q3.8125 -2.9687538 5.6875 -8.781254z" fill-rule="nonzero"/><path fill="#000000" d="m234.47112 74.674995q-2.9375 2.53125 -5.65625 3.703125q-2.71875 1.171875 -5.8125 1.171875q-4.59375 0 -7.40625 -2.703125q-2.8125 -2.703125 -2.8125 -6.921875q0 -2.78125 1.265625 -4.921875q1.265625 -2.1406288 3.359375 -3.4375038q2.09375 -1.296875 5.125 -1.859375q1.90625 -0.375 7.234375 -0.59375q5.328125 -0.21875 7.640625 -1.125q0.65625 -2.3125 0.65625 -3.84375q0 -1.96875 -1.4375 -3.09375q-1.96875 -1.5625 -5.75 -1.5625q-3.5625 0 -5.828125 1.578125q-2.265625 1.578125 -3.296875 4.484375l-5.71875 -0.5q1.75 -4.9375 5.546875 -7.5625q3.796875 -2.625 9.578125 -2.625q6.15625 0 9.75 2.9375q2.75 2.1875 2.75 5.6875q0 2.65625 -0.78125 6.15625l-1.84375 8.250004q-0.875 3.9375 -0.875 6.40625q0 1.5625 0.6875 4.5l-5.71875 0q-0.46875 -1.625 -0.65625 -4.125zm2.09375 -12.687504q-1.1875 0.46875 -2.546875 0.71875q-1.359375 0.25 -4.546875 0.53125q-4.9375 0.4375 -6.96875 1.1093788q-2.03125 0.671875 -3.0625 2.140625q-1.03125 1.46875 -1.03125 3.25q0 2.375 1.640625 3.90625q1.640625 1.53125 4.671875 1.53125q2.8125 0 5.40625 -1.484375q2.59375 -1.484375 4.09375 -4.140625q1.5 -2.65625 2.34375 -7.562504zm11.125 16.812504l6.9375 -33.187504l4.9999847 0l-1.40625 6.78125q2.5625 -3.84375 5.015625 -5.6875q2.453125 -1.84375 5.015625 -1.84375q1.6875 0 4.15625 1.21875l-2.3125 5.25q-1.46875 -1.0625 -3.21875 -1.0625q-2.96875 0 -6.09375 3.3125q-3.125 3.3125 -4.9062347 11.906254l-2.8125 13.3125l-5.375 0zm45.687485 -11.28125l5.5 0.5625q-1.1875 4.09375 -5.453125 7.78125q-4.265625 3.6875 -10.171875 3.6875q-3.6875 0 -6.765625 -1.703125q-3.078125 -1.703125 -4.6875 -4.953125q-1.609375 -3.25 -1.609375 -7.40625q0 -5.437504 2.515625 -10.546879q2.515625 -5.109375 6.515625 -7.59375q4.0 -2.484375 8.65625 -2.484375q5.9375 0 9.484375 3.6875q3.546875 3.6875 3.546875 10.0625q0 2.4375 -0.4375 5.0l-24.4375 0q-0.125 0.9687538 -0.125 1.7500038q0 4.65625 2.140625 7.109375q2.140625 2.453125 5.234375 2.453125q2.90625 0 5.71875 -1.90625q2.8125 -1.90625 4.375 -5.5zm-16.4375 -8.218754l18.625 0q0.03125 -0.875 0.03125 -1.25q0 -4.25 -2.125 -6.515625q-2.125 -2.265625 -5.46875 -2.265625q-3.625 0 -6.609375 2.5q-2.984375 2.5 -4.453125 7.53125zm28.4375 19.500004l6.03125 -28.812504l-5.0625 0l0.90625 -4.375l5.0625 0l0.96875 -4.71875q0.75 -3.53125 1.546875 -5.09375q0.796875 -1.5625 2.59375 -2.578125q1.796875 -1.015625 4.890625 -1.015625q2.15625 0 6.25 0.90625l-1.03125 4.9375q-2.875 -0.75 -4.8125 -0.75q-1.65625 0 -2.515625 0.828125q-0.859375 0.828125 -1.484375 3.921875l-0.75 3.5625l6.3125 0l-0.90625 4.375l-6.3125 0l-6.03125 28.812504l-5.65625 0zm39.65625 -6.0q-5.96875 6.75 -12.21875 6.75q-3.84375 0 -6.203125 -2.203125q-2.359375 -2.203125 -2.359375 -5.390625q0 -2.09375 1.0625 -7.1875l4.0 -19.156254l5.65625 0l-4.4375 21.218754q-0.5625 2.65625 -0.5625 4.125q0 1.875 1.140625 2.921875q1.140625 1.046875 3.359375 1.046875q2.375 0 4.640625 -1.15625q2.265625 -1.15625 3.90625 -3.125q1.640625 -1.96875 2.671875 -4.65625q0.6875 -1.71875 1.59375 -6.031254l3.0 -14.34375l5.65625 0l-6.9375 33.187504l-5.21875 0l1.25 -6.0zm12.5 6.0l9.5625 -45.812504l5.65625 0l-9.5625 45.812504l-5.65625 0zm39.03125 -11.28125l5.5 0.5625q-1.1875 4.09375 -5.453125 7.78125q-4.265625 3.6875 -10.171875 3.6875q-3.6875 0 -6.765625 -1.703125q-3.078125 -1.703125 -4.6875 -4.953125q-1.609375 -3.25 -1.609375 -7.40625q0 -5.437504 2.515625 -10.546879q2.515625 -5.109375 6.515625 -7.59375q4.0 -2.484375 8.65625 -2.484375q5.9375 0 9.484375 3.6875q3.546875 3.6875 3.546875 10.0625q0 2.4375 -0.4375 5.0l-24.4375 0q-0.125 0.9687538 -0.125 1.7500038q0 4.65625 2.140625 7.109375q2.140625 2.453125 5.234375 2.453125q2.90625 0 5.71875 -1.90625q2.8125 -1.90625 4.375 -5.5zm-16.4375 -8.218754l18.625 0q0.03125 -0.875 0.03125 -1.25q0 -4.25 -2.125 -6.515625q-2.125 -2.265625 -5.46875 -2.265625q-3.625 0 -6.609375 2.5q-2.984375 2.5 -4.453125 7.53125z" fill-rule="nonzero"/></g></svg>